<?xml version="1.0" encoding="utf-8"?>
<!-- Generator: Adobe Illustrator 15.1.0, SVG Export Plug-In  -->
<!DOCTYPE svg PUBLIC "-//W3C//DTD SVG 1.1//EN" "http://www.w3.org/Graphics/SVG/1.1/DTD/svg11.dtd" [
	<!ENTITY ns_flows "http://ns.adobe.com/Flows/1.0/">
]>
<svg version="1.1"
	 xmlns="http://www.w3.org/2000/svg" xmlns:xlink="http://www.w3.org/1999/xlink" xmlns:a="http://ns.adobe.com/AdobeSVGViewerExtensions/3.0/"
	 x="0px" y="0px" width="200px" height="200px" viewBox="-2 -2 200 200" overflow="visible" enable-background="new -2 -2 200 200"
	 xml:space="preserve">
<defs>
</defs>
<g>
	<g>
		<path fill="#999999" d="M47.3,0v110.3H0c0,0,0,48.7,0,64.4C0,190.5,14.7,197,25.5,197h147.8c11.9,0,23.6-11.6,23.6-23.6
			c0-8.7,0-173.3,0-173.3H47.3z M29.5,189.1h-4c-4.9,0-17.6-2.6-17.6-14.4v-56.5h39.4v53.2C47.3,176.6,40.4,189.1,29.5,189.1z
			 M189.1,173.3c0,7.7-8.1,15.8-15.8,15.8H46.9c5.3-5.5,8.3-12.8,8.3-17.8V7.9h134V173.3z M173.3,23.6H70.9v7.9h102.4V23.6z
			 M173.3,130H70.9v7.9h102.4V130z M173.3,157.6H70.9v7.9h102.4V157.6z M173.3,51.2H70.9v59.1h102.4V51.2z M165.5,102.4H78.8V59.1
			h86.7V102.4z"/>
	</g>
</g>
</svg>
