<?xml version="1.0" encoding="utf-8"?>
<!-- Generator: Adobe Illustrator 15.1.0, SVG Export Plug-In  -->
<!DOCTYPE svg PUBLIC "-//W3C//DTD SVG 1.1//EN" "http://www.w3.org/Graphics/SVG/1.1/DTD/svg11.dtd" [
	<!ENTITY ns_flows "http://ns.adobe.com/Flows/1.0/">
]>
<svg version="1.1"
	 xmlns="http://www.w3.org/2000/svg" xmlns:xlink="http://www.w3.org/1999/xlink" xmlns:a="http://ns.adobe.com/AdobeSVGViewerExtensions/3.0/"
	 x="0px" y="0px" width="200px" height="200px" viewBox="0.6 0.1 200 200"
	 overflow="visible" enable-background="new 0.6 0.1 200 200" xml:space="preserve">
<defs>
</defs>
<path fill="#FFFFFF" d="M196.1,3.8c-2.5-2.5-5.9-3.8-9.2-3.8c-3.3,0-6.7,1.3-9.2,3.8l-38.4,38.3v-7.3H0v165h165.3V60.9h-8l38.8-38.7
	C201.2,17.2,201.2,8.9,196.1,3.8z M156.6,191.2H8.7V43.6h129.1l-68.2,68v18.8h18.1l68.9-68.8V191.2z M189.9,16.1L84.1,121.7h-5.8
	v-6.5L183.8,9.9c1.1-1.1,2.4-1.3,3.1-1.3c0.7,0,2,0.2,3.1,1.3c1.1,1.1,1.3,2.4,1.3,3.1C191.2,13.7,191.1,15,189.9,16.1z"/>
<path fill="#FFFFFF" d="M64.4,148.8h-8.3l-4.8-4.8c0,0,0,0,0,0l0,0l0,0c-0.7-0.7-1.7-1.2-2.8-1.2h-10c-1.2,0-2.2,0.5-2.9,1.3l0,0
	l-4.7,4.7h-8.4c-2.2,0-4,1.8-4,4v24c0,2.2,1.8,4,4,4h42c2.2,0,4-1.8,4-4v-24C68.4,150.6,66.6,148.8,64.4,148.8z M66.4,176.8
	c0,1.1-0.9,2-2,2h-42c-1.1,0-2-0.9-2-2v-24c0-1.1,0.9-2,2-2h8.4h0.8l0.6-0.6l2.4-2.4l0,0.1l2.3-2.5c0.4-0.4,0.9-0.7,1.5-0.7h10
	c0.5,0,1,0.2,1.4,0.6l4.8,4.8l0.6,0.6h0.8h8.3c1.1,0,2,0.9,2,2V176.8z"/>
<path fill="#FFFFFF" d="M43.4,150.8c-7.2,0-13,5.8-13,13s5.8,13,13,13c7.2,0,13-5.8,13-13S50.6,150.8,43.4,150.8z M43.4,174.8
	c-6.1,0-11-4.9-11-11c0-6.1,4.9-11,11-11s11,4.9,11,11C54.4,169.9,49.5,174.8,43.4,174.8z"/>
<path fill="#FFFFFF" d="M43.4,154.8c-5,0-9,4-9,9s4,9,9,9c5,0,9-4,9-9S48.4,154.8,43.4,154.8z M43.4,170.8c-3.9,0-7-3.1-7-7
	s3.1-7,7-7c3.9,0,7,3.1,7,7S47.3,170.8,43.4,170.8z"/>
</svg>
