<?xml version="1.0" encoding="utf-8"?>
<!-- Generator: Adobe Illustrator 15.1.0, SVG Export Plug-In  -->
<!DOCTYPE svg PUBLIC "-//W3C//DTD SVG 1.1//EN" "http://www.w3.org/Graphics/SVG/1.1/DTD/svg11.dtd" [
	<!ENTITY ns_flows "http://ns.adobe.com/Flows/1.0/">
]>
<svg version="1.1"
	 xmlns="http://www.w3.org/2000/svg" xmlns:xlink="http://www.w3.org/1999/xlink" xmlns:a="http://ns.adobe.com/AdobeSVGViewerExtensions/3.0/"
	 x="0px" y="0px" width="200px" height="200px" viewBox="-3.6 -2.2 200 200"
	 overflow="visible" enable-background="new -3.6 -2.2 200 200" xml:space="preserve">
<defs>
</defs>
<path fill="#999999" d="M192.2,31.4L164.6,3.7l-6.8,6.8L148.3,1c-1.4-1.4-3.6-1.4-4.9,0L87.2,57.2c-1.4,1.4-1.4,3.5,0,4.9
	c0.7,0.7,1.6,1,2.5,1c0.9,0,1.8-0.3,2.5-1l53.8-53.8l7,7L33.7,134.6l8,8c-3.4-1.7-7.1-2.5-10.8-2.5c-6.2,0-12.5,2.4-17.2,7.1
	c-0.5,0.5-1,1-1.4,1.5c-0.2,0.3-0.4,0.5-0.6,0.8c-0.2,0.3-0.5,0.6-0.7,0.9c-0.2,0.2-0.3,0.5-0.5,0.7C0.5,166.4,0,195.4,0,195.4
	s1.1,0.1,2.9,0.1c8.3,0,32.6-1.1,45.3-13.8c7.6-7.6,9.1-18.9,4.6-28l8.6,8.6L192.2,31.4z M43.3,176.7c-7.7,7.7-21.3,10.4-31,11.3
	L28,172.2l-4.9-4.9L8,182.5c1.2-9.3,3.7-20.5,8.3-27.4l0.2-0.3l0.2-0.2c0.2-0.2,0.3-0.4,0.6-0.8c0.1-0.2,0.2-0.3,0.4-0.5
	c0.3-0.4,0.6-0.7,1-1.1c3.3-3.3,7.6-5.1,12.3-5.1c4.6,0,9,1.8,12.3,5.1C50,158.9,50,169.9,43.3,176.7z M182.4,31.4l-41.1,41.1
	l-17.9-17.8l41.1-41.1L182.4,31.4z M118.5,59.6l17.9,17.8l-75,75l-17.9-17.8L118.5,59.6z"/>
</svg>
