<?xml version="1.0" encoding="utf-8"?>
<!-- Generator: Adobe Illustrator 15.1.0, SVG Export Plug-In  -->
<!DOCTYPE svg PUBLIC "-//W3C//DTD SVG 1.1//EN" "http://www.w3.org/Graphics/SVG/1.1/DTD/svg11.dtd" [
	<!ENTITY ns_flows "http://ns.adobe.com/Flows/1.0/">
]>
<svg version="1.1"
	 xmlns="http://www.w3.org/2000/svg" xmlns:xlink="http://www.w3.org/1999/xlink" xmlns:a="http://ns.adobe.com/AdobeSVGViewerExtensions/3.0/"
	 x="0px" y="0px" width="300px" height="280px" viewBox="-14.3 -8.9 300 280"
	 overflow="visible" enable-background="new -14.3 -8.9 300 280" xml:space="preserve">
<defs>
</defs>
<path fill="none" stroke="#BBBBBB" d="M232.2,0.5c-22.3,0-40.3,18-40.3,40.3c0,3.9,0.6,7.6,1.6,11.1L75.7,101.3
	c-7-12.1-20-20.2-34.9-20.2c-22.2,0-40.3,18-40.3,40.3c0,22.3,18,40.3,40.3,40.3c11.7,0,22.1-5,29.5-12.9l75.9,54.6
	c-3,5.6-4.7,12-4.7,18.8c0,22.3,18,40.3,40.3,40.3c22.2,0,40.3-18,40.3-40.3c0-22.2-18-40.3-40.3-40.3c-11.8,0-22.5,5.1-29.8,13.3
	l-75.8-54.5c3.1-5.7,4.9-12.3,4.9-19.2c0-3.7-0.6-7.4-1.5-10.8l117.9-49.4c7,11.9,19.9,19.9,34.7,19.9c22.3,0,40.3-18,40.3-40.3
	C272.5,18.5,254.5,0.5,232.2,0.5z M181.8,191.9c16.7,0,30.2,13.6,30.2,30.2c0,16.7-13.6,30.2-30.2,30.2s-30.2-13.6-30.2-30.2
	C151.6,205.5,165.2,191.9,181.8,191.9z M40.8,151.6c-16.7,0-30.2-13.6-30.2-30.2c0-16.7,13.6-30.2,30.2-30.2S71,104.7,71,121.4
	C71,138.1,57.5,151.6,40.8,151.6z M232.2,71C215.5,71,202,57.5,202,40.8s13.6-30.2,30.2-30.2c16.7,0,30.2,13.6,30.2,30.2
	S248.9,71,232.2,71z"/>
<path fill="#D8432F" d="M24.3,112c0,3.3,1.1,5.7,3.3,7.1c1.8,1.2,3.9,1.3,5,1.3c0.3,0,0.5,0,0.6,0c0,0-0.3,2.2,1.3,4.4l-0.1,0
	c-2.9,0-12.3,0.6-12.3,8.3c0,7.8,8.6,8.2,10.3,8.2c0.1,0,0.2,0,0.2,0c0,0,0.1,0,0.4,0c1.1,0,4-0.1,6.6-1.4c3.5-1.7,5.2-4.6,5.2-8.6
	c0-3.9-2.7-6.3-4.6-8c-1.2-1-2.2-1.9-2.2-2.8c0-0.9,0.8-1.6,1.7-2.4c1.5-1.4,3-3.3,3-7c0-3.2-0.4-5.4-3-6.8c0.3-0.1,1.2-0.2,1.7-0.3
	c1.4-0.2,3.5-0.4,3.5-1.6v-0.2H34.7C34.6,102.2,24.3,102.6,24.3,112z M40.9,132.1c0.2,3.1-2.5,5.4-6.5,5.7c-4.1,0.3-7.5-1.5-7.7-4.7
	c-0.1-1.5,0.6-3,1.9-4.1c1.3-1.2,3.1-1.9,5.1-2.1c0.2,0,0.5,0,0.7,0C38.1,126.9,40.7,129.1,40.9,132.1z M38.2,109.9
	c1,3.5-0.5,7.2-2.9,7.9c-0.3,0.1-0.6,0.1-0.9,0.1c-2.2,0-4.4-2.2-5.2-5.3c-0.5-1.7-0.4-3.2,0.1-4.7c0.5-1.4,1.4-2.4,2.6-2.7
	c0.3-0.1,0.6-0.1,0.9-0.1C35.4,105,37.1,106.1,38.2,109.9z M55.5,117.5v-6.7h-4.2v6.7h-6.7v4.2h6.7v6.7h4.2v-6.7h6.7v-4.2H55.5z"/>
<path fill="#3CA7D9" d="M203.4,212.2c-1.5,0.7-3.1,1.1-4.7,1.3c1.7-1,3-2.6,3.6-4.5c-1.6,0.9-3.3,1.6-5.2,2c-1.5-1.6-3.6-2.6-6-2.6
	c-4.5,0-8.2,3.7-8.2,8.2c0,0.6,0.1,1.3,0.2,1.9c-6.8-0.3-12.9-3.6-16.9-8.6c-0.7,1.2-1.1,2.6-1.1,4.1c0,2.8,1.4,5.4,3.7,6.8
	c-1.3,0-2.6-0.4-3.7-1c0,0,0,0.1,0,0.1c0,4,2.8,7.3,6.6,8c-0.7,0.2-1.4,0.3-2.2,0.3c-0.5,0-1-0.1-1.5-0.1c1,3.3,4.1,5.6,7.7,5.7
	c-2.8,2.2-6.3,3.5-10.2,3.5c-0.7,0-1.3,0-2-0.1c3.6,2.3,7.9,3.7,12.6,3.7c15.1,0,23.3-12.5,23.3-23.4c0-0.4,0-0.7,0-1.1
	C200.9,215.3,202.3,213.9,203.4,212.2z"/>
<path fill="#3B5998" d="M241,28.5h-6.3c-0.8,0-1.6,1-1.6,2.3v4.6h7.9V42H233v19.6h-7.5V42h-6.8v-6.5h6.8v-3.8c0-5.5,3.8-10,9.1-10
	h6.3V28.5z"/>
</svg>
