<?xml version="1.0" encoding="utf-8"?>
<!-- Generator: Adobe Illustrator 15.1.0, SVG Export Plug-In  -->
<!DOCTYPE svg PUBLIC "-//W3C//DTD SVG 1.1//EN" "http://www.w3.org/Graphics/SVG/1.1/DTD/svg11.dtd" [
	<!ENTITY ns_flows "http://ns.adobe.com/Flows/1.0/">
]>
<svg version="1.1"
	 xmlns="http://www.w3.org/2000/svg" xmlns:xlink="http://www.w3.org/1999/xlink" xmlns:a="http://ns.adobe.com/AdobeSVGViewerExtensions/3.0/"
	 x="0px" y="0px" width="300px" height="280px" viewBox="-1.8 -29.1 300 280"
	 overflow="visible" enable-background="new -1.8 -29.1 300 280" xml:space="preserve">
<defs>
</defs>
<path fill="#222222" d="M148.1,221.5c-42.5,0-81.2-24.4-99.7-62.4H0V62.4h48.4C66.8,24.4,105.6,0,148.1,0
	c42.5,0,81.2,24.4,99.7,62.4h48.4v96.7h-48.4C229.3,197.1,190.5,221.5,148.1,221.5z"/>
<path fill="#F7F6F0" d="M291,67.6h-46.5C228,30.8,191,5.1,148.1,5.1c-42.9,0-79.9,25.6-96.4,62.4H5.1V154h46.5
	c16.5,36.8,53.5,62.4,96.4,62.4s79.9-25.6,96.4-62.4H291V67.6z"/>
<rect x="5.1" y="67.6" fill="#F7F6F0" width="285.8" height="86.4"/>
<circle fill="#F7F6F0" cx="148.1" cy="110.8" r="105.6"/>
<path fill="#222222" d="M148.1,31.2c-43.9,0-79.6,35.7-79.6,79.6c0,43.9,35.7,79.6,79.6,79.6s79.6-35.7,79.6-79.6
	C227.7,66.9,192,31.2,148.1,31.2z M148.1,189.1c-43.2,0-78.3-35.1-78.3-78.3s35.1-78.3,78.3-78.3c43.2,0,78.3,35.1,78.3,78.3
	S191.3,189.1,148.1,189.1z"/>
<path fill="#222222" d="M148.1,26.3c-46.6,0-84.5,37.9-84.5,84.5c0,46.6,37.9,84.5,84.5,84.5s84.5-37.9,84.5-84.5
	C232.6,64.2,194.7,26.3,148.1,26.3z M148.1,194c-45.9,0-83.2-37.3-83.2-83.2c0-45.9,37.3-83.2,83.2-83.2c45.9,0,83.2,37.3,83.2,83.2
	C231.3,156.7,194,194,148.1,194z"/>
<path fill="#222222" d="M148.1,21.3c-49.3,0-89.4,40.1-89.4,89.4c0,49.3,40.1,89.4,89.4,89.4s89.4-40.1,89.4-89.4
	C237.5,61.5,197.4,21.3,148.1,21.3z M148.1,198.9c-48.6,0-88.2-39.6-88.2-88.2c0-48.6,39.5-88.2,88.2-88.2s88.2,39.5,88.2,88.2
	C236.2,159.4,196.7,198.9,148.1,198.9z"/>
<path fill="#222222" d="M148.1,16.4c-52,0-94.3,42.3-94.3,94.3c0,52,42.3,94.3,94.3,94.3s94.3-42.3,94.3-94.3
	C242.4,58.7,200.1,16.4,148.1,16.4z M148.1,203.9c-51.3,0-93.1-41.8-93.1-93.1c0-51.3,41.8-93.1,93.1-93.1s93.1,41.8,93.1,93.1
	C241.2,162.1,199.4,203.9,148.1,203.9z"/>
<path fill="#222222" d="M148.1,11.5c-54.7,0-99.3,44.5-99.3,99.3c0,54.7,44.5,99.3,99.3,99.3s99.3-44.5,99.3-99.3
	C247.3,56,202.8,11.5,148.1,11.5z M148.1,208.8c-54,0-98-44-98-98c0-54,44-98,98-98s98,44,98,98
	C246.1,164.8,202.1,208.8,148.1,208.8z"/>
<rect x="55" y="67.6" fill="#F7F6F0" width="186.1" height="86.4"/>
<rect x="8.8" y="71.2" fill="#222222" width="278.5" height="79.1"/>
<circle fill="#222222" cx="148.1" cy="110.8" r="71.9"/>
<polygon fill="#F7F6F0" points="22.6,80.5 148.1,77.3 273.6,80.5 "/>
<polygon fill="#F7F6F0" points="273.6,141.1 148.1,144.3 22.6,141.1 "/>
<path fill="#F7F6F0" d="M214.1,34.6c-17.6-15.2-40.5-24.4-65.5-24.4c-25.5,0-48.8,9.6-66.5,25.3c0.1,1.9,0.7,3.8,1.9,5.4l6.5,8.7
	c1.5,2,3.5,3.2,5.9,3.7c13.7-12.3,31.8-19.8,51.6-19.8c19.9,0,38,7.5,51.7,19.9c2.5-0.4,4.7-1.7,6.2-3.7l6.3-8.3
	C213.7,39.3,214.4,37,214.1,34.6z"/>
<path fill="#F7F6F0" d="M187,177.5c-11.5,6.7-24.8,10.6-39,10.6c-13,0-25.2-3.2-36-8.9c-2.2,1-3.8,2.8-4.8,5l-4.1,10.1
	c-0.7,1.8-0.9,3.6-0.6,5.4c13.8,7.2,29.5,11.2,46.1,11.2c15.1,0,29.5-3.4,42.4-9.4l-3.3-8.3L187,177.5z"/>
<path fill="#D90000" d="M101.1,47.7c-1.1,0.8-2.2,1.1-3.6,0.9c-1.3-0.2-2.3-0.8-3.1-1.9L87.9,38c-0.8-1.1-1.1-2.2-0.9-3.6
	c0.2-1.3,0.8-2.4,1.9-3.1c1.1-0.8,2.3-1.1,3.5-0.9c1.3,0.2,2.3,0.8,3.1,1.9l1.4,1.8L94.5,36l-1.4-1.9c-0.3-0.4-0.7-0.6-1.1-0.7
	c-0.5-0.1-0.9,0-1.3,0.3c-0.4,0.3-0.6,0.7-0.7,1.1c-0.1,0.5,0,0.9,0.3,1.3l6.5,8.8c0.3,0.4,0.7,0.6,1.1,0.7c0.5,0.1,0.9,0,1.3-0.3
	c0.4-0.3,0.6-0.7,0.7-1.1c0.1-0.5,0-0.9-0.3-1.3l-2.3-3.2l-1.3,1l-1.8-2.4l3.8-2.9l4.2,5.6c0.8,1.1,1.1,2.2,0.9,3.5
	C102.8,45.9,102.2,47,101.1,47.7z"/>
<path fill="#D90000" d="M110.6,41.7c-1.2,0.6-2.4,0.8-3.6,0.4c-1.3-0.4-2.2-1.1-2.8-2.3l-7.4-13.6l2.6-1.4l7.4,13.5
	c0.2,0.4,0.6,0.7,1,0.8c0.5,0.1,0.9,0.1,1.3-0.1c0.4-0.2,0.7-0.6,0.8-1c0.1-0.5,0.1-0.9-0.1-1.3l-7.4-13.5l2.8-1.5l7.4,13.6
	c0.6,1.2,0.8,2.4,0.4,3.6C112.5,40.1,111.7,41,110.6,41.7z"/>
<path fill="#D90000" d="M117.8,33l0.9,4.6l-2.9,1.1L112,18.7l3.9-1.4L126,34.9l-3,1.1l-2.2-4.1L117.8,33z M115.5,22.3l1.7,7.8
	l2.1-0.8L115.5,22.3z"/>
<path fill="#D90000" d="M128.2,13.9c1.6-0.3,2.9-0.1,3.9,0.6c0.8,0.7,1.4,1.7,1.7,3.1l0.6,2.8c0.3,1.4,0,2.7-0.9,3.8l3.9,8.1
	l-3.2,0.6l-3.3-7c-0.1,0-0.2,0-0.3,0.1l-1.7,0.3l1.5,7.4l-3,0.6l-4-19.6L128.2,13.9z M130.9,18.3c-0.2-1.1-0.9-1.6-2-1.4l-1.8,0.4
	l1.3,6.3l1.8-0.4c0.5-0.1,0.8-0.3,1.1-0.7c0.3-0.4,0.3-0.8,0.2-1.3L130.9,18.3z"/>
<path fill="#D90000" d="M142.5,27.5l-0.5,4.6l-3.1,0.1l2.5-20.1l4.1-0.2l4.3,19.8l-3.2,0.1l-0.9-4.6L142.5,27.5z M143.6,16.6
	l-0.7,7.9l2.2-0.1L143.6,16.6z"/>
<path fill="#D90000" d="M156.8,12.3l2.5,13.8l1.5-13.4l3,0.3l-2.2,19.9l-3.2-0.3l-2.7-13.2l-1.4,12.7l-3-0.3l2.2-19.9L156.8,12.3z"
	/>
<path fill="#D90000" d="M170,17.5l-3.1-0.8l0.8-2.9l9.1,2.3L176,19l-3.1-0.8l-4.2,16.4l-2.9-0.7L170,17.5z"/>
<path fill="#D90000" d="M172.9,35.8l7.4-18.6l8,3.2l-1.1,2.8l-5.2-2.1l-2,5.1l3.8,1.5l-1.1,2.8l-3.8-1.5l-2,5.1l5.2,2.1l-1.1,2.8
	L172.9,35.8z"/>
<path fill="#D90000" d="M182.5,39.7l9.7-17.5l7.5,4.2l-1.5,2.6l-4.9-2.7l-2.6,4.8l3.6,2l-1.5,2.6l-3.6-2l-2.6,4.8l4.9,2.7l-1.5,2.6
	L182.5,39.7z"/>
<path fill="#D90000" d="M202.1,46.7c-0.8,1.1-1.8,1.7-3.1,1.9c-1.3,0.2-2.5-0.1-3.5-0.9l-3.8-2.8l12-16l3.8,2.8
	c1.1,0.8,1.7,1.8,1.8,3.1c0.2,1.3-0.1,2.5-0.9,3.5L202.1,46.7z M195.9,44.3l1.5,1.1c0.4,0.3,0.8,0.4,1.3,0.3
	c0.5-0.1,0.8-0.3,1.1-0.7l6.3-8.4c0.3-0.4,0.4-0.8,0.3-1.3c-0.1-0.5-0.3-0.8-0.7-1.1l-1.5-1.1L195.9,44.3z"/>
<path fill="#D90000" d="M116.5,199.9c-0.3,0.8-0.8,1.5-1.5,2c0.1,0.4,0.4,0.7,0.9,0.9l-1.1,2.6c-1.4-0.6-2.2-1.4-2.3-2.5
	c-0.8,0.1-1.5,0-2.2-0.3c-1.2-0.5-2.1-1.4-2.6-2.6c-0.5-1.2-0.5-2.4,0-3.7l4.1-10.1c0.5-1.2,1.4-2.1,2.6-2.6c1.2-0.5,2.4-0.5,3.7,0
	c1.2,0.5,2.1,1.4,2.6,2.6s0.5,2.4,0,3.6L116.5,199.9z M117.7,188.6c0.2-0.4,0.2-0.9,0-1.3c-0.2-0.4-0.5-0.7-0.9-0.9
	c-0.4-0.2-0.9-0.2-1.3,0c-0.4,0.2-0.7,0.5-0.9,0.9l-4.1,10.1c-0.2,0.4-0.2,0.9,0,1.3c0.2,0.4,0.5,0.7,0.9,0.9c0.4,0.2,0.9,0.2,1.3,0
	c0.4-0.2,0.8-0.5,0.9-0.9L117.7,188.6z"/>
<path fill="#D90000" d="M124,207c-1.3-0.3-2.3-1.1-2.9-2.2c-0.7-1.1-0.8-2.3-0.5-3.6l3.8-15l2.9,0.7l-3.8,14.9
	c-0.1,0.5-0.1,0.9,0.2,1.3c0.2,0.4,0.6,0.7,1.1,0.8c0.5,0.1,0.9,0.1,1.3-0.2c0.4-0.2,0.7-0.6,0.8-1.1l3.8-15l3,0.8l-3.8,15
	c-0.3,1.3-1.1,2.3-2.2,2.9C126.4,207.2,125.2,207.4,124,207z"/>
<path fill="#D90000" d="M136.7,204.5l-1.2,4.5l-3.1-0.3l5.5-19.5l4.1,0.4l1.2,20.2l-3.2-0.3l-0.2-4.6L136.7,204.5z M139.4,193.9
	l-1.9,7.7l2.2,0.2L139.4,193.9z"/>
<path fill="#D90000" d="M155.9,209.6l-8.2,0.3l-0.7-20l3-0.1l0.6,17l5.2-0.2L155.9,209.6z"/>
<path fill="#D90000" d="M162.1,208.6l-3,0.4l-2.6-19.8l3-0.4L162.1,208.6z"/>
<path fill="#D90000" d="M165.6,190.8l-3.1,0.7l-0.7-2.9l9.2-2.2l0.7,2.9l-3.1,0.7l3.9,16.5l-2.9,0.7L165.6,190.8z"/>
<path fill="#D90000" d="M180.1,195.4l-8.1-9.3l3.1-1.2l4.7,5.8l-0.6-7.5l3.1-1.2l0.6,12.3l3.1,7.8l-2.8,1.1L180.1,195.4z"/>
<path fill="#FFFFFF" d="M40.7,112.7c0-8.9,4.5-12.9,9.9-12.9c5.4,0,9.9,4,9.9,12.9c0,8.9-4.5,12.9-9.9,12.9
	C45.2,125.7,40.7,121.7,40.7,112.7z M55.3,112.7c0-5.5-1.6-8.5-4.7-8.5c-3.1,0-4.7,3-4.7,8.5c0,5.5,1.6,8.7,4.7,8.7
	C53.7,121.4,55.3,118.3,55.3,112.7z"/>
<path fill="#FFFFFF" d="M63.6,100.3h7.5c4.6,0,8.7,1.8,8.7,8c0,6.6-4.4,8.2-8.7,8.2h-2.4v8.7h-5V100.3z M71.2,112.5
	c2.7,0,3.7-1.3,3.7-4c0-2.7-1-3.9-3.8-3.9h-2.5v7.9H71.2z"/>
<path fill="#FFFFFF" d="M86.7,104.6h-5.9v-4.3h17v4.3h-6v20.6h-5.1V104.6z"/>
<path fill="#FFFFFF" d="M100.6,100.3h5.1v24.9h-5.1V100.3z"/>
<path fill="#FFFFFF" d="M110,100.3h6.5l4.4,17.8h0l4.1-17.8h6.6v24.9h-4.8v-17.5h-0.1c-0.2,1.7-0.9,4.6-1.3,6.1l-3,11.4h-3.8
	l-2.9-11.4c-0.3-1.2-1.1-4.4-1.3-6.3h-0.1v17.6H110V100.3z"/>
<path fill="#FFFFFF" d="M136,100.3h5.1v24.9H136V100.3z"/>
<path fill="#FFFFFF" d="M144.2,119.7l4.1-2.1c1.1,2.2,2.8,3.9,5.2,3.9c2.2,0,3.3-1.1,3.3-2.8c0-2.1-2.1-3-4.4-4
	c-3.3-1.4-7.3-3-7.3-8c0-4.1,3.4-6.9,7.9-6.9c4.3,0,6.9,2.4,8.4,5.6l-4,2.2c-1-2.1-2.4-3.5-4.5-3.5c-1.8,0-2.8,1.1-2.8,2.5
	c0,2,1.9,2.9,4.1,3.9c3.3,1.4,7.6,3,7.6,8.1c0,3.8-2.9,7.1-8.3,7.1C148.7,125.6,145.9,123.2,144.2,119.7z"/>
<path fill="#FFFFFF" d="M165.2,100.3h14.3v4.3h-9.2v5.6h6.6v4.1h-6.6v6.7h9.6v4.2h-14.7V100.3z M172.3,93.2h4.9l-4.2,5.6h-3.4
	L172.3,93.2z"/>
<path fill="#FFFFFF" d="M189.2,119.7l4.1-2.1c1.1,2.2,2.8,3.9,5.2,3.9c2.2,0,3.3-1.1,3.3-2.8c0-2.1-2.1-3-4.4-4
	c-3.3-1.4-7.3-3-7.3-8c0-4.1,3.4-6.9,7.9-6.9c4.3,0,6.9,2.4,8.4,5.6l-4,2.2c-1-2.1-2.4-3.5-4.5-3.5c-1.8,0-2.8,1.1-2.8,2.5
	c0,2,1.9,2.9,4.1,3.9c3.3,1.4,7.6,3,7.6,8.1c0,3.8-2.9,7.1-8.3,7.1C193.7,125.6,190.9,123.2,189.2,119.7z"/>
<path fill="#FFFFFF" d="M210.2,100.3h14.3v4.3h-9.2v5.6h6.6v4.1h-6.6v6.7h9.6v4.2h-14.7V100.3z"/>
<path fill="#FFFFFF" d="M226.2,112.7c0-8.9,4.5-12.9,9.9-12.9c5.3,0,9.9,4,9.9,12.9c0,8.9-4.5,12.9-9.9,12.9
	C230.7,125.7,226.2,121.7,226.2,112.7z M240.8,112.7c0-5.5-1.6-8.5-4.7-8.5c-3.1,0-4.7,3-4.7,8.5c0,5.5,1.6,8.7,4.7,8.7
	C239.1,121.4,240.8,118.3,240.8,112.7z"/>
<path fill="#FFFFFF" d="M121.1,61.4c0-4.6,1.5-6.4,3.9-6.4c2.4,0,3.4,1.5,3.5,4.6l-2.2,0.2c-0.2-2-0.5-2.7-1.3-2.7
	c-1.1,0-1.5,1.3-1.5,4.3c0,3,0.4,4.3,1.5,4.3c0.9,0,1.2-0.6,1.4-2.8l2.2,0.2c-0.3,2.5-1.2,4.6-3.7,4.6
	C122.5,67.7,121.1,65.9,121.1,61.4z"/>
<path fill="#FFFFFF" d="M129.4,61.4c0-4.5,1.6-6.4,4-6.4c2.4,0,4,1.8,4,6.4s-1.6,6.4-4,6.4C131,67.7,129.4,65.9,129.4,61.4z
	 M135,61.4c0-2.9-0.4-4.3-1.6-4.3c-1.2,0-1.6,1.4-1.6,4.3s0.5,4.3,1.6,4.3C134.5,65.7,135,64.3,135,61.4z"/>
<path fill="#FFFFFF" d="M138.5,55.1h2.5l2,5.3c0.3,1,0.6,1.7,0.8,2.5h0.1v-7.7h1.9v12.4h-2l-2.4-6.1c-0.3-0.9-0.7-2-0.9-2.4h-0.1
	v8.5h-1.8V55.1z"/>
<path fill="#FFFFFF" d="M148.9,57.2h-2.2v-2h6.8v2h-2.2v10.4h-2.4V57.2z"/>
<path fill="#FFFFFF" d="M154.5,55.1h5.8v2h-3.4v2.9h2.5V62h-2.5v3.6h3.6v2h-5.9V55.1z"/>
<path fill="#FFFFFF" d="M161.6,55.1h2.5l2,5.3c0.3,1,0.6,1.7,0.8,2.5h0.1v-7.7h1.9v12.4h-2l-2.4-6.1c-0.3-0.9-0.7-2-0.9-2.4h-0.1
	v8.5h-1.8V55.1z"/>
<path fill="#FFFFFF" d="M170.2,63.7v-8.5h2.4v8.4c0,1.6,0.3,2.2,1.2,2.2c0.9,0,1.2-0.6,1.2-2.2v-8.4h2.2v8.5c0,2.7-0.9,4.1-3.5,4.1
	C171.2,67.7,170.2,66.3,170.2,63.7z"/>
</svg>
